<?xml version="1.0" encoding="UTF-8" standalone="no"?>
<!-- Created with Inkscape (http://www.inkscape.org/) -->

<svg
   width="115.55981mm"
   height="115.56mm"
   viewBox="0 0 115.55981 115.56"
   version="1.1"
   id="svg1"
   xml:space="preserve"
   inkscape:version="1.4.2 (ebf0e940d0, 2025-05-08)"
   sodipodi:docname="logowhiteonblack.svg"
   inkscape:export-filename="logo.png"
   inkscape:export-xdpi="96"
   inkscape:export-ydpi="96"
   xmlns:inkscape="http://www.inkscape.org/namespaces/inkscape"
   xmlns:sodipodi="http://sodipodi.sourceforge.net/DTD/sodipodi-0.dtd"
   xmlns="http://www.w3.org/2000/svg"
   xmlns:svg="http://www.w3.org/2000/svg"><sodipodi:namedview
     id="namedview1"
     pagecolor="#505050"
     bordercolor="#eeeeee"
     borderopacity="1"
     inkscape:showpageshadow="0"
     inkscape:pageopacity="0"
     inkscape:pagecheckerboard="0"
     inkscape:deskcolor="#505050"
     inkscape:document-units="mm"
     inkscape:zoom="1.4142136"
     inkscape:cx="105.35891"
     inkscape:cy="112.78353"
     inkscape:window-width="2560"
     inkscape:window-height="1403"
     inkscape:window-x="0"
     inkscape:window-y="0"
     inkscape:window-maximized="1"
     inkscape:current-layer="svg1" /><defs
     id="defs1"><inkscape:path-effect
       effect="mirror_symmetry"
       start_point="109.13712,71.218025"
       end_point="109.13712,174.7612"
       center_point="109.13712,122.98961"
       id="path-effect5"
       is_visible="true"
       lpeversion="1.2"
       lpesatellites=""
       mode="vertical"
       discard_orig_path="false"
       fuse_paths="false"
       oposite_fuse="false"
       split_items="false"
       split_open="false"
       link_styles="false" /><inkscape:path-effect
       effect="mirror_symmetry"
       start_point="109.13712,71.218025"
       end_point="109.13712,174.7612"
       center_point="109.13712,122.98961"
       id="path-effect4"
       is_visible="true"
       lpeversion="1.2"
       lpesatellites=""
       mode="vertical"
       discard_orig_path="false"
       fuse_paths="false"
       oposite_fuse="false"
       split_items="false"
       split_open="false"
       link_styles="false" /><inkscape:path-effect
       effect="mirror_symmetry"
       start_point="109.13713,48.873756"
       end_point="109.13713,190.75351"
       center_point="109.13713,119.81363"
       id="path-effect2"
       is_visible="true"
       lpeversion="1.2"
       lpesatellites=""
       mode="vertical"
       discard_orig_path="false"
       fuse_paths="false"
       oposite_fuse="false"
       split_items="false"
       split_open="false"
       link_styles="false" /><inkscape:perspective
       sodipodi:type="inkscape:persp3d"
       inkscape:vp_x="0 : -32.940006 : 1"
       inkscape:vp_y="0 : 999.99997 : 0"
       inkscape:vp_z="130.34883 : -29.295837 : 1"
       inkscape:persp3d-origin="105.00001 : -82.440008 : 1"
       id="perspective1" /><rect
       x="80.671883"
       y="468.29041"
       width="105.26696"
       height="55.092991"
       id="rect1" /></defs><g
     inkscape:label="Layer 1"
     inkscape:groupmode="layer"
     id="layer1"
     transform="translate(-47.685615,-72.696547)"
     style="display:inline" /><g
     inkscape:label="Layer 1"
     id="g85"
     style="display:inline;fill:#ffffff;fill-opacity:1;stroke:none;stroke-opacity:1;stroke-width:0.64154465;stroke-dasharray:none;paint-order:markers fill stroke"
     transform="matrix(1.1160562,0,0,1.1160562,-64.023259,-79.483318)"
     inkscape:export-filename="g85.png"
     inkscape:export-xdpi="802.32483"
     inkscape:export-ydpi="802.32483"><g
       id="g99"
       style="fill:#ffffff;fill-opacity:1;stroke:none;stroke-opacity:1;stroke-width:0.64154465;stroke-dasharray:none;paint-order:markers fill stroke"><g
         id="g77"
         style="fill:#ffffff;fill-opacity:1;stroke:none;stroke-opacity:1;stroke-width:0.64154465;stroke-dasharray:none;paint-order:markers fill stroke"><path
           style="fill:#ffffff;fill-opacity:1;stroke-width:0.64154465;stroke:none;stroke-opacity:1;stroke-dasharray:none;paint-order:markers fill stroke"
           d="m 87.364822,120.87492 c 3.836176,7.07312 18.601688,26.83717 19.717598,7.87401 0.0497,-10.02409 -0.85762,-9.44118 -7.873961,-15.45519 C 89.312293,104.2147 74.987569,91.493392 68.94882,86.125136 44.18932,71.522225 63.740455,145.32594 84.566698,142.34948 51.060244,105.48625 61.034864,67.347 87.364822,120.87492 Z m 43.544598,0 c -3.83617,7.07312 -18.60168,26.83717 -19.71759,7.87401 -0.0497,-10.02409 0.85762,-9.44118 7.87396,-15.45519 9.89616,-9.07904 24.22089,-21.800348 30.25964,-27.168604 24.7595,-14.602911 5.20836,59.200804 -15.61788,56.224344 33.50645,-36.86323 23.53183,-75.00248 -2.79813,-21.47456 z"
           id="path71"
           sodipodi:nodetypes="cccccc"
           inkscape:path-effect="#path-effect5"
           inkscape:original-d="m 87.364822,120.87492 c 3.836176,7.07312 18.601688,26.83717 19.717598,7.87401 0.0497,-10.02409 -0.85762,-9.44118 -7.873961,-15.45519 C 89.312293,104.2147 74.987569,91.493392 68.94882,86.125136 44.18932,71.522225 63.740455,145.32594 84.566698,142.34948 51.060244,105.48625 61.034864,67.347 87.364822,120.87492 Z" /><path
           id="path83"
           style="display:inline;fill:#ffffff;fill-opacity:1;stroke-width:0.64154465;stroke:none;stroke-opacity:1;stroke-dasharray:none;paint-order:markers fill stroke"
           d="m 142.15128,198.63862 c 6.83114,5.47333 13.11959,5.83335 14.73491,7.86498 -4.82795,-0.69463 -10.11546,-0.77315 -14.71685,0.0444 -4.60139,-0.81761 -9.55044,-0.72522 -14.37839,-0.0306 1.61532,-2.03163 7.52893,-2.40499 14.36033,-7.87887 z"
           transform="matrix(-1,0,0,1,251.28937,-47.804896)" /><path
           id="path74"
           style="fill:#ffffff;fill-opacity:1;stroke-width:0.64154465;stroke:none;stroke-opacity:1;stroke-dasharray:none;paint-order:markers fill stroke"
           d="m 83.125226,148.90568 10.925589,3.91489 -11.538637,0.34774 11.558084,0.78066 -10.800109,4.0376 12.246606,-3.27453 -0.46488,-1.17239 0.0065,-0.46534 0.424133,-1.14877 z m 52.023874,0 -12.1577,3.01986 0.20975,1.25249 -0.0417,0.40607 -0.40191,1.12794 12.24661,3.27453 -10.80011,-4.0376 11.55808,-0.78066 -11.53863,-0.34774 z"
           sodipodi:nodetypes="cccccccccccccccccccc" /><path
           style="fill:#ffffff;fill-opacity:1;stroke-width:0.64154465;stroke:none;stroke-opacity:1;stroke-dasharray:none;paint-order:markers fill stroke"
           d="m 104.57859,147.92813 c -3.63865,-8.96971 -5.275827,-1.19057 -10.077201,-7.59241 -1.081836,8.83493 6.287821,13.05903 10.077201,7.59241 z m 9.11707,0 c 3.63865,-8.96971 5.27582,-1.19057 10.0772,-7.59241 1.08183,8.83493 -6.28782,13.05903 -10.0772,7.59241 z"
           id="path75"
           sodipodi:nodetypes="ccc"
           inkscape:path-effect="#path-effect4"
           inkscape:original-d="m 104.57859,147.92813 c -3.63865,-8.96971 -5.275827,-1.19057 -10.077201,-7.59241 -1.081836,8.83493 6.287821,13.05903 10.077201,7.59241 z" /><path
           id="path77"
           style="fill:#ffffff;fill-opacity:1;stroke-width:0.64154465;stroke:none;stroke-opacity:1;stroke-dasharray:none;paint-order:markers fill stroke"
           d="m 94.489301,158.84919 14.644159,3.92184 14.28022,-3.9098 c -5.30751,-0.23135 -8.61292,-0.17582 -14.27744,0.24401 -5.66453,-0.41978 -9.339432,-0.48741 -14.646939,-0.25605 z" /></g><g
         id="g84"
         transform="matrix(-1,0,0,1,251.28937,-47.804895)"
         style="fill:#ffffff;fill-opacity:1;stroke:none;stroke-opacity:1;stroke-width:0.64154465;stroke-dasharray:none;paint-order:markers fill stroke" /></g></g></svg>
